<svg width="197" height="31" viewBox="0 0 197 31" fill="none" xmlns="http://www.w3.org/2000/svg">
<g clip-path="url(#clip0_372_1379)">
<path d="M35.913 26.6958L39.1871 27.3171V30.5294H28.4318L19.5829 8.71092H19.4578L10.8782 30.5294H0V27.3171L3.29528 26.6958L8.28909 24.3952L8.39299 24.4164L17.7402 1.0437H21.5317L31.1461 24.2913L31.25 24.2701L30.9807 11.548L35.913 26.6958Z" fill="#D2AE6D"/>
<path d="M0.00231934 30.5274V27.3362L3.27639 26.715V4.1925L0.00231934 3.57123V0.358887H10.7576L19.6065 22.1774H19.7316L28.3091 0.358887H39.1873V3.57123L35.892 4.1925V26.715L39.1873 27.3362V30.5274H27.3972V27.3362L30.8579 26.715V19.6902L30.8982 6.49097L30.7943 6.46976L21.4492 29.8425H17.6577L8.04119 6.59486L7.93728 6.61607L8.20659 19.3382V26.715L11.7924 27.3362V30.5274H0.00231934Z" fill="#892E07"/>
</g>
<path d="M58.5682 24.8201V22.847L60.5922 22.4616V8.54842L58.5682 8.16293V6.17969H65.2133L70.6816 19.6566H70.7577L76.0585 6.17969H82.7797V8.16293L80.7456 8.54842V22.4616L82.7797 22.847V24.8201H75.4955V22.847L77.631 22.4616V18.1248L77.6564 9.97372L77.5905 9.9585L71.8178 24.3941H69.4743L63.5343 10.0346L63.4683 10.0498L63.6357 17.9067V22.4616L65.8525 22.847V24.8201H58.5682Z" fill="#892E07"/>
<path d="M102.617 22.6543L96.5249 6.17969H93.39L87.2217 22.6543L85.8623 22.847V24.8151H91.7921V22.847L90.4479 22.6036L91.1733 20.4884L92.3095 17.2016H92.2994L92.6088 16.3292L94.719 10.3288L94.9016 9.80126H94.9777L95.1451 10.3034L97.5648 17.2016H97.5495L98.3916 19.6718H98.3967L98.6706 20.4884L99.3808 22.6036L98.0517 22.847V24.8151H103.977V22.847L102.617 22.6543Z" fill="#892E07"/>
<path d="M107.059 24.8201V22.847L109.093 22.4616V8.54842L107.059 8.16293V6.17969H114.511V8.16293L112.319 8.54842V22.3449H118.143L118.361 19.5298H120.831V24.8151H107.059V24.8201Z" fill="#892E07"/>
<path d="M123.914 24.8201V22.847L125.948 22.4616V8.54842L123.914 8.16293V6.17969H131.208V8.16293L129.174 8.54842V14.3612H137.326V8.54842L135.292 8.16293V6.17969H142.576V8.16293L140.542 8.54842V22.4616L142.576 22.847V24.8201H135.292V22.847L137.326 22.4616V16.8669H129.174V22.4616L131.208 22.847V24.8201H123.914Z" fill="#892E07"/>
<path d="M145.658 24.8201V22.847L147.692 22.4616V8.54842L145.658 8.16293V6.17969H159.857V10.978H157.346L157.128 8.66001H150.919V13.9351H157.457V16.4307H150.919V22.355H157.472L157.691 19.9863H160.176V24.81H145.658V24.8201Z" fill="#892E07"/>
<path d="M167.677 24.8201V22.847L169.711 22.4616V8.64987H165.962L165.678 11.0287H163.259V6.17969H179.4V11.0287H176.97L176.686 8.64987H172.937V22.4616L174.971 22.847V24.8201H167.677Z" fill="#892E07"/>
<path d="M182.482 24.8201V22.847L184.516 22.4616V8.54842L182.482 8.16293V6.17969H196.68V10.978H194.169L193.951 8.66001H187.742V13.9351H194.281V16.4307H187.742V22.355H194.296L194.514 19.9863H197V24.81H182.482V24.8201Z" fill="#D2AE6D"/>
<defs>
<clipPath id="clip0_372_1379">
<rect width="39.3023" height="30.2821" fill="white" transform="translate(0 0.358887)"/>
</clipPath>
</defs>
</svg>
